<svg width="102" height="40" viewBox="0 0 102 40" fill="none" xmlns="http://www.w3.org/2000/svg">
<g clip-path="url(#clip0_5012_6226)">
<path d="M45.4385 32.1138H50.9108V11.8846L45.4385 14.0721V32.1138ZM63.3996 13.7909C62.1496 13.4888 60.2065 13.2596 58.694 13.2596C54.3665 13.2596 52.4654 15.7284 52.4654 20.093V25.6763C52.4654 30.1971 54.5556 32.5096 58.3158 32.5096C60.322 32.5096 62.7168 31.4888 64.0088 30.645L64.5759 32.1242H68.8614V5.32213L63.389 7.87421V13.7805L63.3996 13.7909ZM63.3996 26.3117C62.6013 26.9992 61.1623 27.7492 59.9124 27.7492C58.4734 27.7492 57.9377 26.9471 57.9377 25.6659V20.0825C57.9377 18.8638 58.4734 17.9992 59.9124 17.9992C61.0468 17.9992 62.4542 18.2284 63.3996 18.4575V26.3117ZM78.6402 13.2596C72.4851 13.2596 70.6995 16.6763 70.6995 20.6659V24.9888C70.6995 29.5409 72.9788 32.4992 78.9763 32.4992C81.5602 32.4992 84.2596 31.9263 85.9297 31.3221L85.1314 27.2284C83.5034 27.718 81.2241 28.0305 79.512 28.0305C77.0016 28.0305 76.1719 27.4575 76.1719 25.3325V24.8013H86.1187V20.9263C86.1187 16.9055 84.7848 13.2596 78.6402 13.2596ZM80.951 20.6971H76.1614V19.9055C76.1614 18.6138 76.7706 17.5513 78.6717 17.5513C80.5729 17.5513 80.951 18.6138 80.951 19.9055V20.6971ZM94.175 13.2596C92.0427 13.2596 89.2803 13.645 87.5262 14.1763L88.251 18.2805C89.9945 17.9367 91.6331 17.7492 93.2611 17.7492C96.1916 17.7492 96.5278 18.395 96.5278 20.2909V21.6971H92.5364C88.7341 21.6971 87.0325 23.1763 87.0325 26.895C87.0325 30.0409 88.44 32.5096 91.8537 32.5096C93.1036 32.5096 95.0047 32.1242 97.1265 30.9575L97.5046 32.1346H101.99V20.3325C101.99 15.2075 100.582 13.27 94.1645 13.27L94.175 13.2596ZM96.5278 27.6034C95.698 27.9888 94.8997 28.2492 93.7548 28.2492C92.694 28.2492 92.2738 27.8325 92.2738 26.8117C92.2738 25.7909 92.7255 25.4888 93.9019 25.4888H96.5278V27.6138V27.6034Z" fill="#FEFEFE"/>
<path d="M37.5712 29.9159C36.8045 29.9159 36.4998 29.645 36.4998 29.1138C36.4998 28.9992 36.4998 28.9263 36.5419 28.6971L38.7581 15.7909H39.0207C40.4282 15.0513 44.3355 13.2075 44.3355 13.2075H39.2203L39.903 9.22838L36.0902 13.2075L33.3173 15.7909H35.6281L33.8845 25.9784L27.0466 29.2075C25.6812 29.6555 24.3998 29.9159 23.2549 29.9159C21.2697 29.9159 20.7025 29.2284 20.7025 28.0513C20.7025 27.895 20.7025 27.6346 20.776 27.218L21.0176 25.895L25.2715 24.02C25.4081 23.9784 25.5446 23.9263 25.7022 23.8742C30.933 22.1242 32.3825 20.5617 32.3825 17.4471C32.3825 14.7075 30.1662 13.27 27.0782 13.27C21.8054 13.27 19.7152 15.6242 18.8749 20.3013L18.1606 24.3013C17.5409 24.5825 16.9317 24.8638 16.333 25.145L18.8434 13.1763C16.7532 13.0617 13.2975 13.1763 11.3859 13.2805C5.51437 13.6138 3.91783 15.5513 3.02502 20.02L1.69107 26.4888C1.60704 26.9784 1.51251 27.4784 1.50201 27.9263C1.45999 30.0513 2.48934 31.6346 5.34631 31.6971C6.58573 31.7284 7.84615 31.395 9.06457 30.9263L12.1631 29.8013L11.1548 34.7909C10.7661 36.7596 10.1464 37.468 7.77263 37.4159C5.59839 37.3638 3.2456 36.895 0.703738 35.9263L0 38.27C1.89064 39.1138 5.15724 39.9471 7.59407 39.9992C11.869 40.093 13.4656 38.9471 14.2323 35.093L15.6608 28.2596L17.6355 27.3846C17.604 27.7075 17.5935 28.0096 17.5935 28.2492C17.5935 30.7909 19.085 32.5409 22.8242 32.5409C25.5551 32.5409 27.7714 31.8013 29.8826 30.7388L33.3278 29.2284C33.3278 29.3742 33.3173 29.4888 33.3173 29.5721C33.3173 31.2492 34.3886 32.5409 36.6784 32.5409C38.506 32.5409 40.1131 32.0825 41.7201 31.2909L40.9954 29.1242C39.6929 29.6971 38.5901 29.9263 37.5607 29.9263L37.5712 29.9159ZM4.67408 27.6138C4.67408 27.27 4.76861 26.8534 4.85264 26.4055L6.05005 20.4992C6.7853 16.8638 8.2768 15.8013 11.3648 15.8013C12.6673 15.8013 14.2428 15.6867 15.3142 15.8013L12.8669 26.1555C10.5771 27.4367 8.14025 29.0513 6.15508 29.0096C5.01019 28.9784 4.64257 28.4784 4.66358 27.6034L4.67408 27.6138ZM21.6163 22.4367L22.0785 19.8846C22.6142 16.8846 23.9481 15.8221 26.8471 15.8221C28.5276 15.8221 29.4415 16.5825 29.4415 17.8013C29.4415 18.02 29.3994 18.2388 29.3469 18.4471C29.0318 18.9784 26.3534 20.395 23.0028 22.02C22.5196 22.1659 22.1205 22.2909 21.6163 22.4367Z" fill="#A0A0A0"/>
<path d="M48.2325 1.56241C50.0602 1.56241 51.5517 2.99991 51.5517 4.76032C51.5517 5.84366 50.9845 6.84366 50.0497 7.43741L49.3249 7.89574V9.16657L46.9511 10.1249V7.82282L46.2789 7.35407C45.4176 6.74991 44.9029 5.78116 44.9029 4.76032C44.9029 2.98949 46.3944 1.56241 48.222 1.56241M48.2325 -9.15527e-05C45.5331 -9.15527e-05 43.3379 2.13532 43.3379 4.76032C43.3379 6.35407 44.1467 7.76032 45.3756 8.62491V12.4478L50.9004 10.2291V8.76032C52.2449 7.90616 53.1272 6.43741 53.1272 4.77074C53.1272 2.13532 50.932 0.0103251 48.2325 0.0103251V-9.15527e-05Z" fill="#8555CD"/>
</g>
<defs>
<clipPath id="clip0_5012_6226">
<rect width="102" height="40" fill="white"/>
</clipPath>
</defs>
</svg>
